<?xml version="1.0" encoding="UTF-8"?>
<svg version="1.1" xmlns="http://www.w3.org/2000/svg" width="1425" height="1506">
<path d="M0 0 C16.72492234 16.72492234 21.19633333 66.8317692 26.89853096 89.26985931 C27.49029771 91.59777619 28.08314435 93.92541573 28.67625427 96.25299072 C31.95806196 109.13802212 31.95806196 109.13802212 33.38912964 114.85980225 C38.72211894 136.19024858 38.72211894 136.19024858 45.2890625 157.16796875 C45.60232483 158.07710526 45.91558716 158.98624176 46.23834229 159.92292786 C54.92613731 184.0640334 79.02828175 202.93786138 99 218 C99.61133789 218.46293457 100.22267578 218.92586914 100.85253906 219.40283203 C107.92510783 224.73766439 115.10318257 229.7942554 122.59423828 234.52270508 C140.27661957 245.74260289 156.95716409 258.58456544 173.13671875 271.8515625 C176.69703313 274.76607713 180.30721265 277.61093557 183.9375 280.4375 C190.03388331 285.19201156 196.00477312 290.09031061 201.96240234 295.01708984 C206.39190062 298.67957543 210.84824354 302.30244999 215.34765625 305.87890625 C219.62382597 309.29858248 223.86473975 312.76161267 228.11083984 316.21850586 C231.78647317 319.20881479 235.47441997 322.18118777 239.1875 325.125 C243.57486735 328.62164344 247.85720895 332.23361821 252.12280273 335.87695312 C255.44146506 338.7061358 258.81834921 341.43279444 262.25 344.125 C286.17917379 363.7546757 286.17917379 363.7546757 291 378 C291.24492188 378.70125 291.48984375 379.4025 291.7421875 380.125 C294.36569504 389.03773794 294.1535465 398.83161271 293.984375 408.03515625 C293.96919327 409.05953293 293.95401154 410.08390961 293.93836975 411.139328 C293.88479972 414.44729677 293.81943496 417.75482773 293.75 421.0625 C293.72666595 422.19804321 293.70333191 423.33358643 293.67929077 424.50354004 C293.0285409 454.59523013 290.60307202 483.58917743 284 513 C283.62149902 514.7020459 283.62149902 514.7020459 283.23535156 516.43847656 C276.32142421 546.96831534 267.42941179 577.67173555 254 606 C253.58074249 606.88531403 253.58074249 606.88531403 253.15301514 607.78851318 C237.26585231 641.24227308 218.20283128 673.07443228 195 702 C194.44973145 702.69158203 193.89946289 703.38316406 193.33251953 704.09570312 C187.48222439 711.44001173 181.5614666 718.68634393 175.1953125 725.59375 C173.33249213 727.63556023 171.51196585 729.70307137 169.69921875 731.7890625 C166.11242388 735.89837338 162.42388905 739.90170488 158.6875 743.875 C158.03450928 744.56972412 157.38151855 745.26444824 156.70874023 745.98022461 C149.79630946 753.30983621 142.84825177 760.54337122 135.18359375 767.09765625 C132.99222854 769.00677049 130.85692587 770.96977701 128.72705078 772.94702148 C123.62937374 777.67526649 118.43622179 782.21451019 113.015625 786.57421875 C110.80357784 788.35359865 108.60793161 790.14630553 106.421875 791.95703125 C39.90524592 846.89380814 -39.03156346 886.06010408 -172 925 C-182.81537943 877.43306636 -191.90487832 829.58284817 -198.03125 781.1796875 C-198.11830578 780.49406801 -198.20536156 779.80844852 -198.29505539 779.10205269 C-199.88899426 766.54658419 -199.88899426 766.54658419 -200.60528564 760.58114624 C-204.37453395 729.20789975 -211.54204362 701.57303251 -225 673 C-225.28055237 672.40427185 -225.56110474 671.8085437 -225.85015869 671.19476318 C-227.4592333 667.77882579 -229.06989992 664.36364107 -230.68115234 660.94873047 C-234.13046283 653.637027 -237.57339104 646.32237383 -241 639 C-241.30544739 638.34739197 -241.61089478 637.69478394 -241.92559814 637.0223999 C-250.64371466 618.36289626 -258.2821083 599.45732372 -265 580 C-265.41846191 578.80310547 -265.83692383 577.60621094 -266.26806641 576.37304688 C-279.86674004 537.17406099 -289.41868729 496.25880866 -294.3125 455.0625 C-294.43514725 454.03065582 -294.43514725 454.03065582 -294.56027222 452.97796631 C-296.32637212 437.8444626 -297.17897799 422.73735494 -297.1875 407.5 C-297.19974609 406.31664062 -297.21199219 405.13328125 -297.22460938 403.9140625 C-297.2517391 387.67240184 -292.43680384 377.34572224 -282 365 C-280.99839844 363.71416016 -280.99839844 363.71416016 -279.9765625 362.40234375 C-278.23044208 360.28008277 -276.54777598 358.61609163 -274.4375 356.875 C-271.00393476 353.95011109 -267.84058729 350.85015786 -264.6875 347.625 C-260.2730654 343.13086033 -255.60811136 339.10533132 -250.68359375 335.1796875 C-248.03917802 333.03182145 -245.5154503 330.79688827 -243 328.5 C-237.82812206 323.79383618 -232.4379003 319.39333188 -227 315 C-225.26990474 313.58446752 -223.54074945 312.16778547 -221.8125 310.75 C-215.94791357 305.95170201 -210.06677743 301.17389719 -204.18359375 296.3984375 C-201.42288746 294.15717397 -198.66522 291.91225796 -195.91015625 289.6640625 C-187.90322172 283.13445425 -179.83969757 276.68744262 -171.69580078 270.32958984 C-170.01902697 269.01491807 -168.35022156 267.69078397 -166.68359375 266.36328125 C-152.26211957 254.89714779 -137.43598028 244.05865811 -122 234 C-69.45508455 199.73039623 -45.79901894 165.66193403 -30.86056519 104.34246826 C-25.75029686 83.4158291 -20.38156899 62.58324485 -14.4375 41.875 C-14.15421844 40.88404327 -13.87093689 39.89308655 -13.57907104 38.87210083 C-10.78229216 29.11766127 -7.87865946 19.40260299 -4.72265625 9.7578125 C-4.35568886 8.62096512 -4.35568886 8.62096512 -3.98130798 7.46115112 C-2.23882187 2.23882187 -2.23882187 2.23882187 0 0 Z M-7 194.8125 C-7.96550781 195.63105469 -8.93101562 196.44960937 -9.92578125 197.29296875 C-14.01184472 200.86386133 -18.00987254 204.52807708 -21.98046875 208.2265625 C-24.19665887 210.28482624 -26.46398125 212.27210592 -28.75450134 214.24720764 C-32.63171784 217.63530603 -36.3139339 221.17200366 -39.94750977 224.81811523 C-40.91262985 225.78060684 -40.91262985 225.78060684 -41.89724731 226.76254272 C-43.99780158 228.85873935 -46.09472776 230.95852102 -48.19140625 233.05859375 C-49.66521374 234.53172645 -51.13916954 236.00471077 -52.61326599 237.47755432 C-55.69196531 240.55478491 -58.76886311 243.63380244 -61.84448242 246.71411133 C-65.77036106 250.64568672 -69.7007127 254.57275494 -73.63243198 258.49848843 C-76.67384887 261.53627741 -79.71286226 264.5764619 -82.75117302 267.61735725 C-84.19879885 269.06564618 -85.64715685 270.51320368 -87.09628487 271.95998955 C-89.12725961 273.98840099 -91.15496134 276.02003146 -93.18188477 278.05249023 C-94.06503105 278.93260017 -94.06503105 278.93260017 -94.96601868 279.83049011 C-98.63137189 283.5142404 -102.09784424 287.32802767 -105.48929501 291.26555729 C-107.29567167 293.33946109 -109.19383309 295.2924143 -111.15625 297.21875 C-111.86910156 297.92386719 -112.58195312 298.62898438 -113.31640625 299.35546875 C-114.77213542 300.78515625 -116.22786458 302.21484375 -117.68359375 303.64453125 C-121.75890466 307.67562541 -125.62703245 311.79771943 -129.36523438 316.14257812 C-131.78527737 318.89223271 -134.37838812 321.44439524 -137 324 C-140.94490897 327.89117859 -144.7000639 331.85189991 -148.29296875 336.07421875 C-150.91837633 339.036063 -153.75400783 341.77627625 -156.59375 344.53125 C-158.57116014 346.56002144 -160.4341262 348.6195196 -162.2890625 350.7578125 C-166.03599413 355.07593499 -169.93876393 359.22982314 -173.875 363.375 C-179.66953182 369.50902414 -185.43366288 375.65673597 -191 382 C-191.46889648 382.53189941 -191.93779297 383.06379883 -192.42089844 383.61181641 C-207.61681851 400.14393987 -207.61681851 400.14393987 -212.30859375 421.39453125 C-211.75619263 427.84853418 -210.00679351 433.86654053 -208 440 C-207.63793457 441.11882568 -207.63793457 441.11882568 -207.26855469 442.26025391 C-203.40422466 453.97233339 -198.47306768 464.5180155 -192 475 C-191.5659082 475.70495605 -191.13181641 476.40991211 -190.68457031 477.13623047 C-187.74197241 481.88925278 -184.74299027 486.6048824 -181.72460938 491.31005859 C-179.87881037 494.18902425 -178.04056837 497.07272626 -176.203125 499.95703125 C-167.66205552 513.35169741 -159.04325501 526.69377805 -150.32788086 539.97564697 C-148.80825951 542.29230819 -147.28989488 544.60979108 -145.77148438 546.92724609 C-126.03139634 577.08197162 -126.03139634 577.08197162 -105.58007812 606.75537109 C-103.06074816 610.33428328 -100.59446914 613.94909837 -98.125 617.5625 C-91.03277337 627.89818631 -83.76580795 638.07622163 -76.1875 648.0625 C-75.64818848 648.77720459 -75.10887695 649.49190918 -74.55322266 650.22827148 C-71.58706433 654.10748352 -68.5444441 657.63900217 -65 661 C-64.01 660.67 -63.02 660.34 -62 660 C-58.00664502 650.6434764 -61.07198105 635.71345274 -62.3125 626 C-62.43012695 625.05793701 -62.54775391 624.11587402 -62.66894531 623.14526367 C-63.98341384 613.60864324 -65.7634125 606.0979094 -71.984375 598.6484375 C-75.89168339 593.51441601 -78.80723081 587.75655829 -81.86474609 582.08984375 C-82.91737987 580.15209211 -83.99525865 578.23124422 -85.08203125 576.3125 C-95.62208942 557.41733723 -104.25346423 537.04380515 -111.1875 516.5625 C-111.53748047 515.54172363 -111.88746094 514.52094727 -112.24804688 513.46923828 C-117.09608929 498.52753299 -118.55954095 483.82031776 -118.4375 468.1875 C-118.43445862 467.35683014 -118.43141724 466.52616028 -118.42828369 465.6703186 C-118.3336369 448.16339565 -115.82722195 432.79051516 -109.625 416.40234375 C-108.44588477 413.27441307 -107.3812225 410.12918171 -106.375 406.94140625 C-95.19860429 371.54621281 -75.29936934 339.21059261 -42 321 C-20.49816087 309.86142708 0.98239679 305.90993815 24.30078125 313.296875 C38.44955392 318.15726836 50.47232482 325.57790544 62 335 C62.52706543 335.42700195 63.05413086 335.85400391 63.59716797 336.29394531 C67.94298653 339.85071485 71.44738153 343.67354385 75 348 C75.76441406 348.92683594 76.52882813 349.85367188 77.31640625 350.80859375 C90.9419102 367.71156189 99.89193683 386.65688667 106.45703125 407.234375 C107.5184177 410.56046795 108.6473848 413.85362731 109.82421875 417.140625 C127.0053003 465.5131506 115.79189949 511.76085009 94.54101562 556.76708984 C94.03248047 557.8339502 93.52394531 558.90081055 93 560 C92.49146484 561.07072754 91.98292969 562.14145508 91.45898438 563.24462891 C77.11172268 593.22894742 77.11172268 593.22894742 68.3203125 603.03125 C64.37862265 608.07448953 63.99690903 613.80047197 63 620 C62.79375 621.23105469 62.5875 622.46210937 62.375 623.73046875 C61.22292525 631.57897801 60.80114195 639.31754322 60.75 647.25 C60.74073486 648.15564697 60.73146973 649.06129395 60.72192383 649.99438477 C60.72603271 650.84701904 60.7301416 651.69965332 60.734375 652.578125 C60.73775879 653.71362793 60.73775879 653.71362793 60.74121094 654.87207031 C61.0331218 657.27234866 61.80876709 658.91208929 63 661 C70.77762227 657.62902565 75.7129858 648.90902392 80.5625 642.25 C81.16618408 641.42491943 81.76986816 640.59983887 82.3918457 639.74975586 C112.33362968 598.66575877 140.16983333 555.88583952 167.63818359 513.12011719 C168.60343713 511.61738113 169.57004568 510.11551503 170.53759766 508.61425781 C174.06622807 503.13462608 177.56291851 497.63590998 181.03320312 492.11914062 C182.40109704 489.94979943 183.77403267 487.78446485 185.15429688 485.62304688 C194.47806293 470.99874777 202.95323204 456.73698167 208 440 C208.22993652 439.24734863 208.45987305 438.49469727 208.69677734 437.71923828 C212.03288435 426.49913635 214.20806847 415.9602635 209 405 C206.30625659 400.66888315 203.25142246 396.74084595 199.9375 392.875 C199.46070801 392.31514404 198.98391602 391.75528809 198.49267578 391.1784668 C194.3071426 386.29488716 189.98345871 381.54626636 185.61328125 376.828125 C183.23967643 374.25938077 180.89517531 371.66837152 178.5625 369.0625 C173.10363006 362.98418383 167.55681427 356.98864881 162 351 C161.11393066 350.04407959 161.11393066 350.04407959 160.20996094 349.06884766 C158.37084472 347.08597434 156.52952522 345.10517094 154.6875 343.125 C154.12522705 342.51889893 153.5629541 341.91279785 152.98364258 341.28833008 C149.59867379 337.6563487 146.14315598 334.1141761 142.60131836 330.63476562 C140.94365795 328.94248112 139.40442402 327.18340441 137.875 325.375 C134.10560897 320.99159052 130.01471313 316.95702578 125.88232422 312.91943359 C123.04258721 310.12473053 120.34219647 307.27677958 117.75 304.25 C113.26993251 299.06542577 108.37685662 294.30787703 103.5 289.5 C101.67460661 287.70042547 99.85164329 285.89838231 98.03125 284.09375 C96.83338867 282.91329102 96.83338867 282.91329102 95.61132812 281.70898438 C93.64806207 279.67229774 91.8098378 277.62789132 89.97631836 275.48071289 C84.73210932 269.44129314 79.00574661 263.86189913 73.34765625 258.21484375 C72.12114646 256.98765878 70.89478502 255.76032553 69.66856384 254.53285217 C67.10919472 251.97201619 64.54804507 249.41297829 61.9855957 246.85522461 C58.71989492 243.59522046 55.45870525 240.33074635 52.19884586 237.06490231 C49.67061373 234.53303715 47.13998061 232.00358256 44.60864067 229.47482491 C43.40596808 228.27281401 42.20402291 227.07007481 41.0028553 225.86655998 C34.84282352 219.69713116 28.64918776 213.64769581 22 208 C20.18274975 206.33851405 18.36969783 204.67241443 16.5625 203 C5.80313389 191.46188906 5.80313389 191.46188906 -7 194.8125 Z " fill="#AAD402" transform="translate(712,44)"/>
<path d="M0 0 C1.32111663 4.34947932 0.32552814 7.84129988 -0.671875 12.16796875 C-2.62163169 21.25948728 -3.93849995 30.39138756 -5.078125 39.61328125 C-5.16618912 40.32040127 -5.25425323 41.02752129 -5.34498596 41.75606918 C-6.16934341 48.3840654 -6.97391568 55.01442578 -7.77099609 61.64575195 C-12.90944673 104.26575525 -20.85085465 146.31898516 -29.41253662 188.36846924 C-31.35875543 197.93252 -33.29254906 207.49909253 -35.22265625 217.06640625 C-35.42941923 218.09076216 -35.63618221 219.11511806 -35.84921074 220.17051506 C-38.66700206 234.14866779 -41.39414826 248.14044817 -43.9765625 262.1640625 C-44.11741335 262.92665941 -44.2582642 263.68925632 -44.40338326 264.47496223 C-52.56127054 308.77293425 -58.36417526 354.59924329 -46.54077148 398.72436523 C-46.2730896 399.85080444 -46.2730896 399.85080444 -46 401 C-45.71970947 401.97606201 -45.43941895 402.95212402 -45.15063477 403.95776367 C-45 407 -45 407 -46.79492188 409.57373047 C-47.67728516 410.41307129 -48.55964844 411.25241211 -49.46875 412.1171875 C-49.94187622 412.57803741 -50.41500244 413.03888733 -50.90246582 413.51370239 C-52.41930634 414.98484857 -53.95815501 416.43012336 -55.5 417.875 C-57.49505441 419.78339664 -59.4813924 421.70078189 -61.46875 423.6171875 C-62.19479935 424.31214073 -62.19479935 424.31214073 -62.93551636 425.02113342 C-66.87899309 428.81642096 -70.46558513 432.82877495 -74 437 C-75.61967817 438.77570221 -77.24411718 440.54708307 -78.875 442.3125 C-83.79577302 447.7149752 -88.4270049 453.30237581 -93 459 C-93.92389449 460.13198786 -94.8484029 461.26347487 -95.7734375 462.39453125 C-112.28243346 482.67340596 -126.9318449 504.35513713 -140 527 C-140.38188477 527.66080566 -140.76376953 528.32161133 -141.15722656 529.00244141 C-163.52801826 567.95469072 -180.17933937 609.35088448 -190.57739258 653.06054688 C-190.7345575 653.7195549 -190.89172241 654.37856293 -191.0536499 655.05754089 C-191.47748808 656.84558129 -191.894372 658.63526603 -192.31079102 660.42504883 C-193 663 -193 663 -194 664 C-195.85369611 664.08737645 -197.71067541 664.10698153 -199.56640625 664.09765625 C-200.69111328 664.09443359 -201.81582031 664.09121094 -202.97460938 664.08789062 C-204.15861328 664.07951172 -205.34261719 664.07113281 -206.5625 664.0625 C-207.75037109 664.05798828 -208.93824219 664.05347656 -210.16210938 664.04882812 C-213.10812226 664.03699675 -216.05403681 664.02051287 -219 664 C-219.17950195 663.21915039 -219.35900391 662.43830078 -219.54394531 661.63378906 C-226.88308747 630.11112242 -236.47260879 599.45659359 -250 570 C-250.80026611 568.25130615 -250.80026611 568.25130615 -251.61669922 566.46728516 C-259.46520524 549.40963118 -268.18427058 533.02167309 -278 517 C-278.51804199 516.14728516 -279.03608398 515.29457031 -279.56982422 514.41601562 C-286.81667263 502.52494538 -294.66529869 491.15275341 -303 480 C-303.44053711 479.41025391 -303.88107422 478.82050781 -304.33496094 478.21289062 C-313.32161532 466.24471546 -322.65849356 454.41507581 -332.8046875 443.40625 C-334.65407088 441.37916786 -336.45963374 439.32608594 -338.2578125 437.25390625 C-342.07099918 432.88477833 -346.0177917 428.65238523 -350 424.4375 C-351.00933594 423.36338867 -351.00933594 423.36338867 -352.0390625 422.26757812 C-358.81618804 414.23916992 -358.81618804 414.23916992 -367 408 C-366.57233931 402.7611565 -365.49290401 397.99974764 -364.0625 392.9375 C-350.83825095 345.22322071 -362.34946989 291.07698266 -371.81518555 243.65014648 C-372.03432365 242.539244 -372.03432365 242.539244 -372.25788879 241.40589905 C-372.65124187 239.41724833 -373.05166483 237.42999964 -373.45263672 235.44287109 C-373.96452659 232.22312492 -374.10544073 229.25244088 -374 226 C-373.10667969 225.75507812 -372.21335937 225.51015625 -371.29296875 225.2578125 C-367.277745 224.15285579 -363.26757702 223.03007058 -359.25732422 221.90722656 C-356.29652412 221.08258759 -353.33311521 220.26789804 -350.36917114 219.45465088 C-287.72785932 202.21909361 -227.09884945 177.94385735 -171 145 C-170.06623535 144.45263184 -169.1324707 143.90526367 -168.17041016 143.34130859 C-136.56749504 124.71010438 -106.52005744 103.33109692 -78.67822266 79.43554688 C-76.91035481 77.92331776 -75.13364683 76.42196278 -73.35546875 74.921875 C-67.60876448 70.05904463 -62.01066871 65.17985995 -56.765625 59.76953125 C-55.03630382 58.03638414 -53.24302332 56.45654075 -51.375 54.875 C-42.94368213 47.61237966 -34.9505001 39.53550894 -27.76171875 31.04296875 C-25.90861092 28.89402109 -23.99015054 26.8124742 -22.05957031 24.7331543 C-15.65956685 17.83757535 -9.62721267 10.69208245 -3.87109375 3.24609375 C-2 1 -2 1 0 0 Z " fill="#4E4E4E" transform="translate(918,760)"/>
<path d="M0 0 C9.59279883 5.50786594 18.99034553 11.27574336 28.22241211 17.36791992 C29.00277832 17.88177246 29.78314453 18.395625 30.5871582 18.92504883 C41.78061771 26.33795102 52.47158713 34.26237409 62.98852539 42.60180664 C65.96954793 44.95860632 68.96955106 47.29046908 71.97143555 49.62060547 C73.46933447 50.78334544 74.96608499 51.94756639 76.46166992 53.11328125 C80.25987203 56.07364465 84.0686807 59.01845825 87.89819336 61.93823242 C96.55082522 68.55671133 104.794745 75.3683766 112.66918945 82.89575195 C114.81655409 84.93105669 117.00371415 86.92137685 119.18945312 88.9152832 C127.61135696 96.61169539 135.87794571 104.46262839 143.28881836 113.15307617 C145.32097173 115.48081549 147.4154009 117.73868745 149.52490234 119.99609375 C155.36430532 126.25071898 160.91638745 132.64919773 166.22241211 139.36791992 C166.73529785 140.0135791 167.24818359 140.65923828 167.77661133 141.32446289 C206.47560278 190.1198146 236.71521877 244.72372388 254.15991211 304.68041992 C254.52552246 305.93677246 254.89113281 307.193125 255.26782227 308.48754883 C257.60437801 316.72284278 259.46529265 324.98820736 261.22241211 333.36791992 C246.76538952 333.41487496 232.30837896 333.44988949 217.85129547 333.47154427 C211.13691959 333.4818076 204.42259841 333.49602755 197.70825195 333.51879883 C191.21783447 333.54067069 184.72746629 333.55251858 178.23701477 333.55767441 C175.77174606 333.56134457 173.30647978 333.56851079 170.8412323 333.57938004 C153.49918968 333.65273852 137.06147984 333.23391167 120.28491211 328.36791992 C119.22916992 328.06450684 118.17342773 327.76109375 117.08569336 327.44848633 C75.4135149 315.07397244 37.52765352 292.22967053 5.22241211 263.36791992 C4.34456055 262.58932617 3.46670898 261.81073242 2.56225586 261.00854492 C0.10201348 258.80953272 -2.34010658 256.59212162 -4.77758789 254.36791992 C-5.77750474 253.46157818 -6.77750896 252.55533281 -7.77758789 251.64916992 C-15.49876501 244.63519315 -23.00097756 237.54169072 -29.80493164 229.62182617 C-31.74214002 227.40842175 -33.72829866 225.24609579 -35.72924805 223.09033203 C-41.33636008 217.04369166 -46.62251457 210.80750821 -51.77758789 204.36791992 C-52.71163692 203.22530009 -53.64657883 202.08340973 -54.58227539 200.94213867 C-83.36374088 165.66605443 -105.47413691 125.61313626 -119.77758789 82.36791992 C-120.07955078 81.4681543 -120.38151367 80.56838867 -120.69262695 79.64135742 C-127.34847964 59.47993958 -127.93610103 42.88225644 -118.52758789 23.11791992 C-109.29337371 5.70594827 -94.07034433 -12.70091967 -75.55102539 -20.59692383 C-48.86311388 -27.91814179 -22.35987092 -12.6545765 0 0 Z " fill="#4E4E4E" transform="translate(420.777587890625,1090.632080078125)"/>
<path d="M0 0 C15.22955904 -1.14606926 24.68328555 2.05859045 36.84765625 11.68115234 C38.55065648 13.163531 40.24001676 14.66184647 41.91015625 16.18115234 C42.82474609 16.97392578 42.82474609 16.97392578 43.7578125 17.78271484 C59.53439429 32.32849948 70.39503925 53.6078362 71.34765625 75.05615234 C69.8336682 119.54410878 38.53539479 170.28845287 12.91015625 205.18115234 C12.41515625 205.86161621 11.92015625 206.54208008 11.41015625 207.24316406 C4.79198754 216.32806558 -2.17301366 224.99532532 -9.58105469 233.44580078 C-11.12465979 235.22119643 -12.64509556 237.01416894 -14.16015625 238.81396484 C-19.50924444 245.15738019 -24.96840489 251.21129473 -30.91796875 257.00927734 C-32.80354449 258.89485308 -34.5221067 260.81188582 -36.21484375 262.86865234 C-38.85662982 266.04323561 -41.82057408 268.63828717 -44.96484375 271.30615234 C-47.22123678 273.29708737 -49.30495918 275.3988425 -51.40234375 277.55615234 C-56.31544114 282.51946878 -61.63085471 286.8362427 -67.08984375 291.18115234 C-68.23674586 292.11734453 -69.38253122 293.05490607 -70.52734375 293.99365234 C-102.23554676 319.88633984 -138.33016927 340.22660374 -177.96484375 351.05615234 C-178.65223633 351.24741699 -179.33962891 351.43868164 -180.04785156 351.63574219 C-196.2625611 355.79326319 -212.76669282 355.44967347 -229.37109375 355.37646484 C-231.88171271 355.37272717 -234.39233315 355.36988377 -236.9029541 355.3678894 C-243.45900617 355.36031232 -250.01496733 355.34071575 -256.57098389 355.31848145 C-263.2816796 355.29678719 -269.99240394 355.28886035 -276.703125 355.27880859 C-289.83206967 355.25746344 -302.96095184 355.22379374 -316.08984375 355.18115234 C-315.6276252 352.81368715 -315.16242744 350.44687064 -314.69555664 348.08032227 C-314.50218594 347.08744831 -314.50218594 347.08744831 -314.30490875 346.0745163 C-313.05670182 339.76937176 -311.38341651 333.64295116 -309.52734375 327.49365234 C-309.18219727 326.34574219 -308.83705078 325.19783203 -308.48144531 324.01513672 C-301.56592662 301.38141243 -293.13811814 279.60457093 -283.08984375 258.18115234 C-282.67798828 257.29556641 -282.26613281 256.40998047 -281.84179688 255.49755859 C-271.61900414 233.69120204 -258.8336555 212.93133409 -245.08984375 193.18115234 C-244.66010254 192.55998535 -244.23036133 191.93881836 -243.78759766 191.29882812 C-237.5585968 182.32476278 -230.92826632 173.69741315 -224.08984375 165.18115234 C-222.98189453 163.79669922 -222.98189453 163.79669922 -221.8515625 162.38427734 C-204.88663465 141.41847986 -186.63009707 120.23773182 -165.98046875 102.79833984 C-164.60983259 101.62593618 -163.26955206 100.41774219 -161.94921875 99.18896484 C-156.37358101 94.00103702 -150.50905581 89.41422863 -144.38989258 84.90063477 C-139.57053958 81.33246534 -134.90032461 77.62433213 -130.27734375 73.80615234 C-122.23263442 67.19020244 -113.8937503 61.01926928 -105.46142578 54.90869141 C-103.15796576 53.23077468 -100.87037162 51.5332865 -98.5859375 49.82958984 C-88.5804591 42.41270293 -78.24938869 35.83679554 -67.484375 29.57910156 C-65.2176248 28.25575209 -62.96423079 26.91266132 -60.71484375 25.56005859 C-21.15408016 1.83368312 -21.15408016 1.83368312 0 0 Z " fill="#4E4E4E" transform="translate(1058.08984375,1068.81884765625)"/>
<path d="M0 0 C0 2.77893036 -0.30768787 4.26943362 -1.1796875 6.83984375 C-1.44338135 7.63455078 -1.7070752 8.42925781 -1.97875977 9.24804688 C-2.27451904 10.13556641 -2.57027832 11.02308594 -2.875 11.9375 C-15.18152644 49.90504955 -24.71212806 88.95291294 -34.11083984 127.72070312 C-43.18971577 165.10872615 -59.4842378 190.29885324 -90 214 C-91.13803073 214.93563156 -92.2732706 215.87466423 -93.40625 216.81640625 C-101.1248081 223.19260642 -109.09251278 228.80731541 -117.546875 234.16015625 C-131.5717888 243.04861648 -144.9311376 252.77077553 -158 263 C-159.20294533 263.935127 -160.40606359 264.87003161 -161.609375 265.8046875 C-169.26631517 271.77059023 -176.80504752 277.87834754 -184.328125 284.01171875 C-187.20612454 286.35721533 -190.09655836 288.68601547 -193 291 C-198.62409904 295.48611245 -204.20177785 300.02892715 -209.78125 304.5703125 C-212.54722453 306.82118179 -215.31808748 309.06577738 -218.09375 311.3046875 C-226.27691365 317.91249332 -234.33353233 324.64220363 -242.28662109 331.52490234 C-244.00197649 333.00170162 -245.72760487 334.46549594 -247.45703125 335.92578125 C-255.67355523 342.87707126 -263.61871754 350.07682327 -271.4140625 357.49755859 C-272.73278172 358.74685017 -274.06755466 359.97916945 -275.40625 361.20703125 C-285.83352994 371.03432881 -293.87115947 383.11287456 -294.47662354 397.69334412 C-294.57319466 402.08881406 -294.55121981 406.47905026 -294.5 410.875 C-294.49379639 411.81962097 -294.48759277 412.76424194 -294.48120117 413.73748779 C-294.16402546 455.26049363 -287.63696455 497.72529324 -275.5625 537.5 C-275.12852361 538.93608234 -274.69494012 540.37228346 -274.26171875 541.80859375 C-274.04821777 542.51226074 -273.8347168 543.21592773 -273.61474609 543.94091797 C-273.0411931 545.86202438 -272.49791209 547.79209654 -271.95703125 549.72265625 C-261.55079245 586.65165531 -246.56975636 621.71608647 -230.00233459 656.25418091 C-210.91110086 696.0769776 -200.67550258 733.02519222 -195.79638672 776.95898438 C-191.95241722 811.31127732 -186.03205634 845.18731821 -179.17102051 879.05157471 C-177.7040407 886.30136727 -176.25261473 893.5542904 -174.80128098 900.80722809 C-174.29916521 903.30903789 -173.7927316 905.80994228 -173.28555298 908.31072998 C-172.98145662 909.82139293 -172.67744572 911.33207309 -172.37353516 912.84277344 C-172.23334961 913.52812668 -172.09316406 914.21347992 -171.94873047 914.91960144 C-171.39691056 917.67664936 -171 920.17855482 -171 923 C-168.69 923 -166.38 923 -164 923 C-167.08809695 924.76462683 -168.23312136 925 -172 925 C-182.81537943 877.43306636 -191.90487832 829.58284817 -198.03125 781.1796875 C-198.11830578 780.49406801 -198.20536156 779.80844852 -198.29505539 779.10205269 C-199.88899426 766.54658419 -199.88899426 766.54658419 -200.60528564 760.58114624 C-204.37453395 729.20789975 -211.54204362 701.57303251 -225 673 C-225.28055237 672.40427185 -225.56110474 671.8085437 -225.85015869 671.19476318 C-227.4592333 667.77882579 -229.06989992 664.36364107 -230.68115234 660.94873047 C-234.13046283 653.637027 -237.57339104 646.32237383 -241 639 C-241.30544739 638.34739197 -241.61089478 637.69478394 -241.92559814 637.0223999 C-250.64371466 618.36289626 -258.2821083 599.45732372 -265 580 C-265.41846191 578.80310547 -265.83692383 577.60621094 -266.26806641 576.37304688 C-279.86674004 537.17406099 -289.41868729 496.25880866 -294.3125 455.0625 C-294.43514725 454.03065582 -294.43514725 454.03065582 -294.56027222 452.97796631 C-296.32637212 437.8444626 -297.17897799 422.73735494 -297.1875 407.5 C-297.19974609 406.31664062 -297.21199219 405.13328125 -297.22460938 403.9140625 C-297.2517391 387.67240184 -292.43680384 377.34572224 -282 365 C-280.99839844 363.71416016 -280.99839844 363.71416016 -279.9765625 362.40234375 C-278.23044208 360.28008277 -276.54777598 358.61609163 -274.4375 356.875 C-271.00393476 353.95011109 -267.84058729 350.85015786 -264.6875 347.625 C-260.2730654 343.13086033 -255.60811136 339.10533132 -250.68359375 335.1796875 C-248.03917802 333.03182145 -245.5154503 330.79688827 -243 328.5 C-237.82812206 323.79383618 -232.4379003 319.39333188 -227 315 C-225.26990474 313.58446752 -223.54074945 312.16778547 -221.8125 310.75 C-215.94791357 305.95170201 -210.06677743 301.17389719 -204.18359375 296.3984375 C-201.42288746 294.15717397 -198.66522 291.91225796 -195.91015625 289.6640625 C-187.90322172 283.13445425 -179.83969757 276.68744262 -171.69580078 270.32958984 C-170.01902697 269.01491807 -168.35022156 267.69078397 -166.68359375 266.36328125 C-152.26211957 254.89714779 -137.43598028 244.05865811 -122 234 C-69.45508455 199.73039623 -45.79901894 165.66193403 -30.86056519 104.34246826 C-25.75029686 83.4158291 -20.38156899 62.58324485 -14.4375 41.875 C-14.15421844 40.88404327 -13.87093689 39.89308655 -13.57907104 38.87210083 C-10.78229216 29.11766127 -7.87865946 19.40260299 -4.72265625 9.7578125 C-4.35568886 8.62096512 -4.35568886 8.62096512 -3.98130798 7.46115112 C-2.23882187 2.23882187 -2.23882187 2.23882187 0 0 Z " fill="#E3EBC1" transform="translate(712,44)"/>
<path d="M0 0 C0.33 1.32 0.66 2.64 1 4 C0.01 3.67 -0.98 3.34 -2 3 C-2.25007813 3.55816406 -2.50015625 4.11632812 -2.7578125 4.69140625 C-7.08440418 12.73233607 -14.34904108 19.59523642 -20.57373047 26.23217773 C-23.13505689 28.96399763 -25.62868043 31.72847562 -28.05859375 34.578125 C-32.84662571 40.07688046 -38.03448814 45.18379897 -43.19702148 50.32739258 C-44.933936 52.058947 -46.66543889 53.79578359 -48.39648438 55.53320312 C-54.09559158 61.2361413 -59.83652929 66.79478349 -66 72 C-67.22686357 73.06847449 -68.45212296 74.1387937 -69.67578125 75.2109375 C-77.01438777 81.60397557 -84.38823335 87.93208332 -92 94 C-92.63212402 94.50611816 -93.26424805 95.01223633 -93.91552734 95.53369141 C-104.47696589 103.96463711 -115.30298722 111.84882769 -126.54052734 119.35253906 C-129.0321494 121.02153506 -131.5109494 122.70831774 -133.98828125 124.3984375 C-153.37724029 137.56332158 -173.48311477 149.50910979 -194.17822266 160.50097656 C-196.10479268 161.52443564 -198.02884504 162.55264455 -199.95068359 163.58496094 C-243.68407919 187.05509911 -292.43660838 207.7731313 -340.85107422 219.4765625 C-344.33219989 220.32449859 -347.78964202 221.25912192 -351.25 222.1875 C-352.41660156 222.49558594 -353.58320312 222.80367187 -354.78515625 223.12109375 C-358.53836024 224.14718233 -362.24871754 225.28283057 -365.94921875 226.484375 C-368 227 -368 227 -372 227 C-371.83753281 227.86751892 -371.83753281 227.86751892 -371.67178345 228.75256348 C-370.53034236 234.85270199 -369.39566368 240.95407241 -368.26464844 247.05615234 C-367.84347859 249.32371795 -367.42066934 251.59097977 -366.99609375 253.85791016 C-364.82613795 265.44977308 -362.74287735 276.98715808 -361.41113281 288.70727539 C-360.94488936 292.44137598 -360.22701072 296.07516477 -359.44628906 299.75341797 C-354.09407028 326.6960423 -354.10587455 360.17365505 -360 387 C-360.26296875 388.23105469 -360.5259375 389.46210937 -360.796875 390.73046875 C-361.6731912 394.47269661 -362.58425257 398.02247199 -364.08984375 401.5625 C-365.23320458 404.19090087 -365.23320458 404.19090087 -365 408 C-365.66 408 -366.32 408 -367 408 C-366.57233931 402.7611565 -365.49290401 397.99974764 -364.0625 392.9375 C-350.83825095 345.22322071 -362.34946989 291.07698266 -371.81518555 243.65014648 C-372.03432365 242.539244 -372.03432365 242.539244 -372.25788879 241.40589905 C-372.65124187 239.41724833 -373.05166483 237.42999964 -373.45263672 235.44287109 C-373.96452659 232.22312492 -374.10544073 229.25244088 -374 226 C-373.10667969 225.75507812 -372.21335937 225.51015625 -371.29296875 225.2578125 C-367.277745 224.15285579 -363.26757702 223.03007058 -359.25732422 221.90722656 C-356.29652412 221.08258759 -353.33311521 220.26789804 -350.36917114 219.45465088 C-287.72785932 202.21909361 -227.09884945 177.94385735 -171 145 C-170.06623535 144.45263184 -169.1324707 143.90526367 -168.17041016 143.34130859 C-136.56749504 124.71010438 -106.52005744 103.33109692 -78.67822266 79.43554688 C-76.91035481 77.92331776 -75.13364683 76.42196278 -73.35546875 74.921875 C-67.60876448 70.05904463 -62.01066871 65.17985995 -56.765625 59.76953125 C-55.03630382 58.03638414 -53.24302332 56.45654075 -51.375 54.875 C-42.94368213 47.61237966 -34.9505001 39.53550894 -27.76171875 31.04296875 C-25.90861092 28.89402109 -23.99015054 26.8124742 -22.05957031 24.7331543 C-15.65956685 17.83757535 -9.62721267 10.69208245 -3.87109375 3.24609375 C-2 1 -2 1 0 0 Z " fill="#DADADA" transform="translate(918,760)"/>
<path d="M0 0 C15.22955904 -1.14606926 24.68328555 2.05859045 36.84765625 11.68115234 C41.06635356 15.31946674 45.08989102 19.12619506 48.91015625 23.18115234 C48.58015625 23.84115234 48.25015625 24.50115234 47.91015625 25.18115234 C47.33910156 24.56369141 46.76804687 23.94623047 46.1796875 23.31005859 C36.7931219 13.50564906 25.68377324 3.38072701 11.484375 2.78271484 C9.52213571 2.77482909 7.55977399 2.78293202 5.59765625 2.80615234 C4.62892578 2.79455078 3.66019531 2.78294922 2.66210938 2.77099609 C-45.47616723 2.96367765 -98.88996389 52.38771218 -134.26660156 80.38305664 C-137.47368146 82.92047911 -140.70707999 85.41717072 -143.96704102 87.88623047 C-154.58279554 95.94826279 -164.64283102 104.50170613 -173.97070312 114.03222656 C-176.60223704 116.71777244 -179.27050465 119.26695448 -182.15234375 121.68115234 C-187.09240292 125.89653341 -191.3291775 130.77292188 -195.65771484 135.59619141 C-197.06631019 137.15510736 -198.49041086 138.69791953 -199.921875 140.23583984 C-205.12618592 145.83267238 -210.13780198 151.53939405 -214.9296875 157.49755859 C-216.32195259 159.22718991 -217.72977286 160.94447044 -219.15625 162.64599609 C-243.53255532 191.78084352 -263.10849126 224.30837976 -280.08984375 258.18115234 C-280.53489258 259.06722168 -280.97994141 259.95329102 -281.43847656 260.86621094 C-287.80805604 273.64864841 -293.08759672 286.81068266 -298.08984375 300.18115234 C-298.44175781 301.11781738 -298.79367187 302.05448242 -299.15625 303.01953125 C-301.17927545 308.48000153 -302.9723531 313.92882637 -304.46484375 319.55615234 C-304.88321757 321.09936456 -305.30253112 322.64232224 -305.72265625 324.18505859 C-305.94083008 324.98830566 -306.15900391 325.79155273 -306.38378906 326.61914062 C-307.91000608 332.15721856 -309.52029044 337.67199624 -311.12255859 343.18847656 C-312.26876898 347.16623133 -313.38235846 351.09626703 -314.08984375 355.18115234 C-314.74984375 355.18115234 -315.40984375 355.18115234 -316.08984375 355.18115234 C-310.68998821 321.60080069 -297.45445209 288.80720864 -283.08984375 258.18115234 C-282.67798828 257.29556641 -282.26613281 256.40998047 -281.84179688 255.49755859 C-271.61900414 233.69120204 -258.8336555 212.93133409 -245.08984375 193.18115234 C-244.66010254 192.55998535 -244.23036133 191.93881836 -243.78759766 191.29882812 C-237.5585968 182.32476278 -230.92826632 173.69741315 -224.08984375 165.18115234 C-222.98189453 163.79669922 -222.98189453 163.79669922 -221.8515625 162.38427734 C-204.88663465 141.41847986 -186.63009707 120.23773182 -165.98046875 102.79833984 C-164.60983259 101.62593618 -163.26955206 100.41774219 -161.94921875 99.18896484 C-156.37358101 94.00103702 -150.50905581 89.41422863 -144.38989258 84.90063477 C-139.57053958 81.33246534 -134.90032461 77.62433213 -130.27734375 73.80615234 C-122.23263442 67.19020244 -113.8937503 61.01926928 -105.46142578 54.90869141 C-103.15796576 53.23077468 -100.87037162 51.5332865 -98.5859375 49.82958984 C-88.5804591 42.41270293 -78.24938869 35.83679554 -67.484375 29.57910156 C-65.2176248 28.25575209 -62.96423079 26.91266132 -60.71484375 25.56005859 C-21.15408016 1.83368312 -21.15408016 1.83368312 0 0 Z " fill="#DFDFDF" transform="translate(1058.08984375,1068.81884765625)"/>
<path d="M0 0 C-0.33 0.66 -0.66 1.32 -1 2 C-1.7528125 1.32195312 -2.505625 0.64390625 -3.28125 -0.0546875 C-22.77312639 -17.27687643 -46.25734707 -30.1564784 -72.98828125 -29.28125 C-95.49537927 -27.17941983 -115.3919829 -17.02976986 -132 -2 C-133.44632813 -0.69482422 -133.44632813 -0.69482422 -134.921875 0.63671875 C-148.2130215 13.06612208 -159.02260284 29.2323283 -166 46 C-166.46019531 47.08796875 -166.92039062 48.1759375 -167.39453125 49.296875 C-170.90842871 57.85413493 -173.83374083 66.49547145 -176.55078125 75.3359375 C-177.87083415 79.62765669 -179.29820746 83.87645956 -180.75 88.125 C-197.34754873 137.7048571 -176.65310903 187.59266443 -154.6640625 231.73046875 C-146.03505072 249.49010847 -146.03505072 249.49010847 -134 265 C-133.42163086 266.86010742 -133.42163086 266.86010742 -132.96484375 269.10546875 C-132.79533203 269.92466797 -132.62582031 270.74386719 -132.45117188 271.58789062 C-132.28166016 272.44576172 -132.11214844 273.30363281 -131.9375 274.1875 C-131.76412109 275.02603516 -131.59074219 275.86457031 -131.41210938 276.72851562 C-130.91902056 279.14861821 -130.45339145 281.57217875 -130 284 C-129.69835937 285.61455078 -129.69835937 285.61455078 -129.390625 287.26171875 C-128.78623278 293.04575231 -128.81560439 298.81358896 -128.8125 304.625 C-128.80025391 305.83929687 -128.78800781 307.05359375 -128.77539062 308.3046875 C-128.77345703 309.47515625 -128.77152344 310.645625 -128.76953125 311.8515625 C-128.76542236 312.91197754 -128.76131348 313.97239258 -128.75708008 315.06494141 C-129.00681394 318.08232888 -129.72791289 320.26928241 -131 323 C-134.35250701 322.42424336 -135.93818629 321.40693737 -138.25 318.9375 C-139.03117188 318.11572266 -139.03117188 318.11572266 -139.828125 317.27734375 C-140.40820312 316.64505859 -140.40820312 316.64505859 -141 316 C-140.67 315.34 -140.34 314.68 -140 314 C-139.59007812 314.433125 -139.18015625 314.86625 -138.7578125 315.3125 C-138.21898437 315.869375 -137.68015625 316.42625 -137.125 317 C-136.59132813 317.556875 -136.05765625 318.11375 -135.5078125 318.6875 C-134.08175012 320.21885522 -134.08175012 320.21885522 -132 320 C-128.68945739 309.6679033 -130.97010773 296.51113642 -132.3125 286 C-132.43012695 285.05793701 -132.54775391 284.11587402 -132.66894531 283.14526367 C-133.98341384 273.60864324 -135.7634125 266.0979094 -141.984375 258.6484375 C-145.89168339 253.51441601 -148.80723081 247.75655829 -151.86474609 242.08984375 C-152.91737987 240.15209211 -153.99525865 238.23124422 -155.08203125 236.3125 C-165.62208942 217.41733723 -174.25346423 197.04380515 -181.1875 176.5625 C-181.53748047 175.54172363 -181.88746094 174.52094727 -182.24804688 173.46923828 C-187.09608929 158.52753299 -188.55954095 143.82031776 -188.4375 128.1875 C-188.43445862 127.35683014 -188.43141724 126.52616028 -188.42828369 125.6703186 C-188.3336369 108.16339565 -185.82722195 92.79051516 -179.625 76.40234375 C-178.44588477 73.27441307 -177.3812225 70.12918171 -176.375 66.94140625 C-165.10773855 31.2584447 -144.66564774 -1.65642579 -111.07080078 -20.05664062 C-69.96446781 -41.36091951 -32.78739035 -28.9749031 0 0 Z " fill="#E0E7C0" transform="translate(781,384)"/>
<path d="M0 0 C3.82341994 1.54156111 5.87196328 3.85828221 8.5625 6.9375 C14.49897398 13.6144555 20.82096343 19.88161008 27.18579102 26.14819336 C31.42608782 30.34376777 35.4740368 34.61302694 39.36035156 39.13769531 C41.93730429 42.06458563 44.71206061 44.77598681 47.5 47.5 C51.60043002 51.54926912 55.53149625 55.64630451 59.26171875 60.04296875 C62.14331718 63.2871953 65.26723544 66.28651872 68.375 69.3125 C71.07866804 72.08054109 73.60122703 74.95838836 76.13476562 77.88085938 C79.25078017 81.42104343 82.50370151 84.82965845 85.75 88.25 C92.23156009 95.10934502 98.66719377 102.00283847 105 109 C105.91072266 109.99966797 105.91072266 109.99966797 106.83984375 111.01953125 C110.62183835 115.24646639 114.1996039 119.64074852 117.75 124.0625 C118.22244141 124.6404834 118.69488281 125.2184668 119.18164062 125.81396484 C124.35044994 132.33043581 126.55112965 138.28095648 126.4375 146.5625 C126.42920166 147.35333984 126.42090332 148.14417969 126.41235352 148.95898438 C126.2005595 156.42981115 124.56021076 162.98031235 122 170 C121.76394043 170.67998047 121.52788086 171.35996094 121.28466797 172.06054688 C114.55308314 191.38292964 103.83263505 208.13188349 92.77929688 225.23388672 C91.09254559 227.85612768 89.42489218 230.48920916 87.765625 233.12890625 C79.73038521 245.8966018 71.41120786 258.46240297 62.99023438 270.9777832 C58.00792051 278.39662028 53.13856326 285.86702431 48.45343018 293.47787476 C45.734404 297.88400232 42.88379204 302.18017906 39.9375 306.4375 C39.19234131 307.51427002 39.19234131 307.51427002 38.43212891 308.61279297 C38.01366699 309.21236816 37.59520508 309.81194336 37.1640625 310.4296875 C34.06851547 314.88591455 31.02298629 319.37530997 27.97875977 323.86669922 C2.33046708 361.70465157 2.33046708 361.70465157 -8 375 C-8.4630957 375.59699707 -8.92619141 376.19399414 -9.40332031 376.80908203 C-18.43208661 388.43208661 -18.43208661 388.43208661 -21 391 C-23.125 390.625 -23.125 390.625 -25 390 C-25.33 388.35 -25.66 386.7 -26 385 C-25.01 386.485 -25.01 386.485 -24 388 C-14.37918158 384.22196172 -7.14946447 370.25471323 -1.39990234 362.00488281 C0.08352621 359.88037718 1.57810749 357.76402871 3.07421875 355.6484375 C29.54023924 318.14053613 54.83161568 279.74168657 79.63818359 241.12011719 C80.60343713 239.61738113 81.57004568 238.11551503 82.53759766 236.61425781 C86.06622807 231.13462608 89.56291851 225.63590998 93.03320312 220.11914062 C94.40109704 217.94979943 95.77403267 215.78446485 97.15429688 213.62304688 C106.47806293 198.99874777 114.95323204 184.73698167 120 168 C120.22993652 167.24734863 120.45987305 166.49469727 120.69677734 165.71923828 C124.03288435 154.49913635 126.20806847 143.9602635 121 133 C118.30625659 128.66888315 115.25142246 124.74084595 111.9375 120.875 C111.46070801 120.31514404 110.98391602 119.75528809 110.49267578 119.1784668 C106.3071426 114.29488716 101.98345871 109.54626636 97.61328125 104.828125 C95.23967643 102.25938077 92.89517531 99.66837152 90.5625 97.0625 C85.10363006 90.98418383 79.55681427 84.98864881 74 79 C73.40928711 78.36271973 72.81857422 77.72543945 72.20996094 77.06884766 C70.37084472 75.08597434 68.52952522 73.10517094 66.6875 71.125 C66.12522705 70.51889893 65.5629541 69.91279785 64.98364258 69.28833008 C61.59867379 65.6563487 58.14315598 62.1141761 54.60131836 58.63476562 C52.94365795 56.94248112 51.40442402 55.18340441 49.875 53.375 C46.10560897 48.99159052 42.01471313 44.95702578 37.88232422 40.91943359 C35.04422706 38.12634438 32.34674433 35.28045255 29.7578125 32.25390625 C24.39548184 26.04637721 18.42548323 20.41807632 12.5625 14.68945312 C7.85598103 10.0402485 3.6103455 5.55261998 0 0 Z " fill="#E7EECA" transform="translate(799,316)"/>
<path d="M0 0 C9.59279883 5.50786594 18.99034553 11.27574336 28.22241211 17.36791992 C29.00277832 17.88177246 29.78314453 18.395625 30.5871582 18.92504883 C41.78061771 26.33795102 52.47158713 34.26237409 62.98852539 42.60180664 C65.96954793 44.95860632 68.96955106 47.29046908 71.97143555 49.62060547 C73.46933447 50.78334544 74.96608499 51.94756639 76.46166992 53.11328125 C80.25987203 56.07364465 84.0686807 59.01845825 87.89819336 61.93823242 C111.33504134 79.86615739 111.33504134 79.86615739 117.22241211 88.36791992 C114.08527871 86.99114304 112.15614529 85.44286485 109.84741211 82.93041992 C104.69035073 77.63965695 98.89743036 73.26881699 93.05151367 68.77807617 C90.74231463 66.99778604 88.45176065 65.19460786 86.16259766 63.38867188 C83.18761714 61.04194811 80.20436281 58.70577529 77.22241211 56.36791992 C76.52067871 55.81700684 75.81894531 55.26609375 75.09594727 54.69848633 C65.54824975 47.20882481 55.95071605 39.81202335 46.09985352 32.72436523 C44.18829847 31.34327293 42.28939782 29.94587426 40.39038086 28.54760742 C29.10973724 20.32579356 17.24575833 13.18359206 5.2097168 6.12817383 C2.50544331 4.5346946 -0.18157186 2.91654635 -2.86352539 1.28588867 C-10.94611447 -3.58451769 -19.11091936 -7.88453984 -27.77758789 -11.63208008 C-28.61386719 -11.99414551 -29.45014648 -12.35621094 -30.31176758 -12.72924805 C-40.46635843 -16.96200325 -49.8133888 -19.1602994 -60.84008789 -19.13208008 C-61.85135742 -19.16043945 -62.86262695 -19.18879883 -63.90454102 -19.21801758 C-76.073294 -19.24936015 -83.83471687 -13.26658894 -92.77758789 -5.63208008 C-93.51750977 -5.06102539 -94.25743164 -4.4899707 -95.01977539 -3.90161133 C-108.09547449 6.6380536 -120.94451799 27.12730863 -123.11010742 43.95117188 C-123.28777367 46.74397396 -123.34578052 49.5070172 -123.34008789 52.30541992 C-123.34202148 53.30234863 -123.34395508 54.29927734 -123.34594727 55.32641602 C-123.16748942 63.8018117 -121.220049 70.93093942 -118.09008789 78.75073242 C-116.91995814 81.97555429 -116.46321062 84.00146337 -116.77758789 87.36791992 C-123.96419775 80.18131006 -126.23944506 62.70427275 -126.46508789 52.80541992 C-125.11780187 27.75108189 -110.74339302 7.53004611 -93.08618164 -9.17895508 C-63.62277259 -34.73964182 -29.12755726 -16.48475087 0 0 Z " fill="#D7D7D7" transform="translate(420.777587890625,1090.632080078125)"/>
<path d="M0 0 C3.62125195 3.03002714 7.12881539 6.06782581 10.4375 9.4375 C14.12897642 13.16945313 17.98298591 16.62149278 22 20 C22.54269531 20.45648926 23.08539062 20.91297852 23.64453125 21.38330078 C36.17708629 31.872942 49.21927747 41.45168169 63.08203125 50.11328125 C79.84234579 60.95027178 95.71546421 73.2063604 111.13671875 85.8515625 C114.69703313 88.76607713 118.30721265 91.61093557 121.9375 94.4375 C128.03388331 99.19201156 134.00477312 104.09031061 139.96240234 109.01708984 C144.39190062 112.67957543 148.84824354 116.30244999 153.34765625 119.87890625 C157.62382597 123.29858248 161.86473975 126.76161267 166.11083984 130.21850586 C169.78647317 133.20881479 173.47441997 136.18118777 177.1875 139.125 C181.57086858 142.6184565 185.84811951 146.2283333 190.11181641 149.8659668 C193.54522574 152.7903679 197.0323761 155.62967811 200.5625 158.4375 C206.82036367 163.51393808 212.39858134 169.22262055 218 175 C215 175 215 175 212.25 172.47265625 C211.16103363 171.34133275 210.07806275 170.20421859 209 169.0625 C203.32553243 163.22653502 197.39537983 158.04330861 191 153 C188.32715487 150.84092026 185.66409173 148.66986536 183 146.5 C181.62121456 145.38005958 180.24231039 144.26026532 178.86328125 143.140625 C173.04384921 138.41224756 167.24465385 133.65922701 161.4453125 128.90625 C150.89943518 120.26927035 140.34331769 111.64375297 129.6796875 103.15234375 C127.53002646 101.42572096 125.39133076 99.68783272 123.2578125 97.94140625 C116.33235412 92.27580072 109.38263842 86.69792644 102.17578125 81.390625 C99.88281964 79.66455796 97.64389032 77.91738523 95.41796875 76.109375 C85.458431 68.07745029 75.04605517 60.91403271 64.375 53.875 C53.31184507 46.5765647 42.38965649 39.24554904 32 31 C31.08089844 30.28972656 30.16179688 29.57945312 29.21484375 28.84765625 C20.31007504 21.8051514 12.18162032 13.85682578 4 6 C3.17371094 5.22269531 2.34742188 4.44539062 1.49609375 3.64453125 C0 2 0 2 0 0 Z " fill="#EDF2D8" transform="translate(774,230)"/>
<path d="M0 0 C-0.33 0.66 -0.66 1.32 -1 2 C-1.7528125 1.32195312 -2.505625 0.64390625 -3.28125 -0.0546875 C-22.77312639 -17.27687643 -46.25734707 -30.1564784 -72.98828125 -29.28125 C-95.49537927 -27.17941983 -115.3919829 -17.02976986 -132 -2 C-133.44632813 -0.69482422 -133.44632813 -0.69482422 -134.921875 0.63671875 C-146.47384906 11.43771124 -155.01316124 24.5813964 -162.4765625 38.4375 C-164 41 -164 41 -166 42 C-164.60089308 37.2093407 -162.52556569 33.11137106 -159.9375 28.875 C-159.53901855 28.21975342 -159.14053711 27.56450684 -158.72998047 26.8894043 C-141.52002536 -0.976105 -117.02964788 -22.0736466 -84.70922852 -29.74951172 C-82.80916031 -30.17984472 -80.90470769 -30.59069047 -79 -31 C-78.20078125 -31.17789062 -77.4015625 -31.35578125 -76.578125 -31.5390625 C-48.02765948 -36.29747342 -20.15946473 -17.81534093 0 0 Z " fill="#EFF3DB" transform="translate(781,384)"/>
<path d="M0 0 C0.495 1.98 0.495 1.98 1 4 C0.01 3.67 -0.98 3.34 -2 3 C-2.37511719 3.83724609 -2.37511719 3.83724609 -2.7578125 4.69140625 C-7.08440418 12.73233607 -14.34904108 19.59523642 -20.57373047 26.23217773 C-23.13505689 28.96399763 -25.62868043 31.72847562 -28.05859375 34.578125 C-32.84662571 40.07688046 -38.03448814 45.18379897 -43.19702148 50.32739258 C-44.933936 52.058947 -46.66543889 53.79578359 -48.39648438 55.53320312 C-54.09559158 61.2361413 -59.83652929 66.79478349 -66 72 C-67.22686357 73.06847449 -68.45212296 74.1387937 -69.67578125 75.2109375 C-77.01426679 81.60387017 -84.38646773 87.93448772 -92 94 C-92.64807617 94.51675293 -93.29615234 95.03350586 -93.96386719 95.56591797 C-104.35688346 103.82612705 -114.95851419 111.62898086 -126 119 C-126 118.01 -126 117.02 -126 116 C-123.97140832 114.34245508 -121.98186274 112.88921716 -119.8125 111.4375 C-118.52073052 110.54499873 -117.23039805 109.65041451 -115.94140625 108.75390625 C-115.28285645 108.29773926 -114.62430664 107.84157227 -113.94580078 107.37158203 C-110.98562326 105.28497258 -108.11246646 103.09299176 -105.25 100.875 C-104.71238037 100.45863281 -104.17476074 100.04226563 -103.62084961 99.61328125 C-98.7068582 95.79203896 -93.83817108 91.91661469 -89 88 C-87.65808594 86.92105469 -87.65808594 86.92105469 -86.2890625 85.8203125 C-80.91400569 81.46907604 -75.68628267 77.00217085 -70.58203125 72.3359375 C-68.46990665 70.42511978 -66.33693738 68.54799029 -64.1875 66.6796875 C-60.10878528 63.11826156 -56.13256336 59.4584472 -52.1875 55.75 C-51.495354 55.0995874 -50.80320801 54.4491748 -50.09008789 53.77905273 C-42.38801236 46.51454439 -34.74527609 39.21126862 -27.8671875 31.1484375 C-25.97141335 28.96710741 -24.01897302 26.84458288 -22.05297852 24.7265625 C-15.65621862 17.83219178 -9.62535087 10.68967406 -3.87109375 3.24609375 C-2 1 -2 1 0 0 Z " fill="#E2E2E2" transform="translate(918,760)"/>
<path d="M0 0 C19.55980306 10.87941709 37.61371278 23.8601562 55.24072266 37.62646484 C57.21393012 39.16702343 59.19076963 40.70284926 61.16796875 42.23828125 C63.44192543 44.00426073 65.71493179 45.77139802 67.98510742 47.54223633 C71.87428431 50.57588435 75.77283399 53.59543596 79.6953125 56.5859375 C103.10919232 74.49327434 103.10919232 74.49327434 109 83 C105.8628666 81.62322312 103.93373318 80.07494493 101.625 77.5625 C96.46793862 72.27173703 90.67501825 67.90089706 84.82910156 63.41015625 C82.51990252 61.62986612 80.22934854 59.82668793 77.94018555 58.02075195 C74.96520503 55.67402819 71.9819507 53.33785537 69 51 C68.2982666 50.44908691 67.5965332 49.89817383 66.87353516 49.33056641 C56.71614703 41.36263499 46.47977861 33.53931239 36 26 C35.34209473 25.52353027 34.68418945 25.04706055 34.00634766 24.55615234 C24.85429075 17.93797443 15.55380081 11.68722716 5.89160156 5.83227539 C5.12170898 5.35910889 4.35181641 4.88594238 3.55859375 4.3984375 C2.87079834 3.98255371 2.18300293 3.56666992 1.47436523 3.13818359 C0.98782471 2.76258301 0.50128418 2.38698242 0 2 C0 1.34 0 0.68 0 0 Z " fill="#E2E2E2" transform="translate(429,1096)"/>
<path d="M0 0 C0.66 0.33 1.32 0.66 2 1 C1.443125 1.680625 0.88625 2.36125 0.3125 3.0625 C-4.23302639 8.83654704 -8.0919206 14.60261642 -11.375 21.1875 C-11.69597656 21.82751953 -12.01695312 22.46753906 -12.34765625 23.12695312 C-16.49905916 31.71878066 -18.58200951 39.34695135 -18.5625 48.9375 C-18.56443359 49.93442871 -18.56636719 50.93135742 -18.56835938 51.95849609 C-18.38990153 60.43389177 -16.4424611 67.5630195 -13.3125 75.3828125 C-12.14237025 78.60763437 -11.68562273 80.63354345 -12 84 C-19.18660986 76.81339014 -21.46185717 59.33635283 -21.6875 49.4375 C-20.71511508 31.35488034 -12.88996921 12.88996921 0 0 Z " fill="#CFCFCF" transform="translate(316,1094)"/>
<path d="M0 0 C0 0.33 0 0.66 0 1 C-1.74023438 1.02126953 -1.74023438 1.02126953 -3.515625 1.04296875 C-19.27935856 1.43541281 -29.1462217 5.31611564 -41 16 C-41.96035156 16.85207031 -42.92070312 17.70414063 -43.91015625 18.58203125 C-46.28819708 20.70587925 -48.65075843 22.84440524 -51 25 C-51 22 -51 22 -49.1640625 19.765625 C-43.48882287 14.1427722 -37.83315735 9.16114992 -31 5 C-30.21753906 4.49210937 -29.43507813 3.98421875 -28.62890625 3.4609375 C-19.69675113 -1.52769204 -9.90258826 -0.436451 0 0 Z " fill="#E9E9E9" transform="translate(369,1069)"/>
<path d="M0 0 C0.66 0.33 1.32 0.66 2 1 C1.66790527 1.49290527 1.33581055 1.98581055 0.99365234 2.49365234 C-7.82295985 15.54464556 -7.82295985 15.54464556 -16 29 C-16.33 28.34 -16.66 27.68 -17 27 C-15.76841069 24.43696278 -14.48217795 22.01925566 -13.0625 19.5625 C-12.45257202 18.49128906 -12.45257202 18.49128906 -11.83032227 17.3984375 C-8.28700096 11.27984043 -4.34221915 5.58454343 0 0 Z " fill="#EBF0D4" transform="translate(632,397)"/>
<path d="M0 0 C1.83882638 4.83841191 -0.43712158 8.40538804 -2.40625 12.890625 C-5.79991474 19.51159836 -10.60584718 24.93276553 -16 30 C-15.4151118 26.2901377 -13.86528246 24.4998872 -11.375 21.75 C-5.95921711 15.2393296 -3.09401756 7.79305672 0 0 Z " fill="#E7EDCE" transform="translate(667,200)"/>
<path d="M0 0 C3.35261564 2.80438918 5.12273868 6.57583749 7.125 10.375 C7.48464844 11.035 7.84429688 11.695 8.21484375 12.375 C10.08989385 15.9003751 11.48819438 18.98310134 12 23 C8.58123884 19.79994126 6.58661932 16.11384175 4.3125 12.0625 C3.68891602 10.98838867 3.68891602 10.98838867 3.05273438 9.89257812 C2.66021484 9.19712891 2.26769531 8.50167969 1.86328125 7.78515625 C1.50532471 7.15488525 1.14736816 6.52461426 0.77856445 5.87524414 C0 4 0 4 0 0 Z " fill="#DDEAAA" transform="translate(800,410)"/>
<path d="M0 0 C0.99 0.33 1.98 0.66 3 1 C0.07172974 3.345111 -2.86905087 5.67397918 -5.8125 8 C-6.64587891 8.66773438 -7.47925781 9.33546875 -8.33789062 10.0234375 C-9.14033203 10.65507813 -9.94277344 11.28671875 -10.76953125 11.9375 C-11.50792236 12.52402344 -12.24631348 13.11054687 -13.00708008 13.71484375 C-15 15 -15 15 -18 15 C-14.34711728 11.21030519 -10.5266115 7.85719069 -6.375 4.625 C-5.80265625 4.16222656 -5.2303125 3.69945312 -4.640625 3.22265625 C-2.9609375 1.9140625 -2.9609375 1.9140625 0 0 Z " fill="#DDDDDD" transform="translate(921,1148)"/>
<path d="M0 0 C3.6047935 3.2983989 5.21805594 7.19019179 7.25 11.5625 C7.81460938 12.73329102 7.81460938 12.73329102 8.390625 13.92773438 C8.74125 14.67474609 9.091875 15.42175781 9.453125 16.19140625 C9.77442383 16.87404541 10.09572266 17.55668457 10.42675781 18.26000977 C11 20 11 20 10 22 C8.31940914 19.09114752 6.65804891 16.17175106 5 13.25 C4.52304687 12.425 4.04609375 11.6 3.5546875 10.75 C3.10351562 9.95078125 2.65234375 9.1515625 2.1875 8.328125 C1.55908203 7.22839355 1.55908203 7.22839355 0.91796875 6.10644531 C0 4 0 4 0 0 Z " fill="#C6C6C6" transform="translate(639,1310)"/>
<path d="M0 0 C2.23689267 3.355339 3.16735541 6.59630574 4.1875 10.4375 C4.47270508 11.44006836 4.47270508 11.44006836 4.76367188 12.46289062 C5.69706355 15.93813861 6.37080403 18.58608679 5 22 C1.66692948 14.57634293 -0.2874051 8.19104544 0 0 Z " fill="#D1E28B" transform="translate(727,92)"/>
<path d="M0 0 C1.74325447 2.6148817 2.41587957 4.0053433 3.125 6.9375 C3.29257812 7.60652344 3.46015625 8.27554688 3.6328125 8.96484375 C4 11 4 11 4 15 C3.34 15 2.68 15 2 15 C0.2520497 9.75614911 -0.19392201 5.52677733 0 0 Z " fill="#D1E18D" transform="translate(735,122)"/>
<path d="M0 0 C3.28465896 2.79196011 5.01321958 6.23196817 7 10 C7 10.66 7 11.32 7 12 C6.34 12 5.68 12 5 12 C3.7109375 10.390625 3.7109375 10.390625 2.375 8.25 C1.92898438 7.55390625 1.48296875 6.8578125 1.0234375 6.140625 C0 4 0 4 0 0 Z " fill="#BCBCBC" transform="translate(630,1294)"/>
<path d="M0 0 C0.66 0.33 1.32 0.66 2 1 C-1.96 6.94 -1.96 6.94 -6 13 C-6.33 12.01 -6.66 11.02 -7 10 C-5.56640625 7.51953125 -5.56640625 7.51953125 -3.5625 4.8125 C-2.90378906 3.91144531 -2.24507812 3.01039063 -1.56640625 2.08203125 C-1.04949219 1.39496094 -0.53257812 0.70789063 0 0 Z " fill="#E6EDC8" transform="translate(632,397)"/>
<path d="M0 0 C2.94721162 2.74395564 5.19168608 5.38337216 7 9 C6.67 9.66 6.34 10.32 6 11 C3.66475218 8.74259377 1.81294927 6.7194239 0 4 C0 2.68 0 1.36 0 0 Z " fill="#B9B9B9" transform="translate(619,1276)"/>
<path d="M0 0 C3.39417765 3.12621626 5.6062718 5.56541027 7 10 C3.64501065 8.61172854 1.84949545 7.14414226 0 4 C0 2.68 0 1.36 0 0 Z " fill="#B9B9B9" transform="translate(604,1254)"/>
<path d="M0 0 C3.39417765 3.12621626 5.6062718 5.56541027 7 10 C3.64501065 8.61172854 1.84949545 7.14414226 0 4 C0 2.68 0 1.36 0 0 Z " fill="#BCBCBC" transform="translate(1111,1099)"/>
<path d="M0 0 C3.39417765 3.12621626 5.6062718 5.56541027 7 10 C3.64501065 8.61172854 1.84949545 7.14414226 0 4 C0 2.68 0 1.36 0 0 Z " fill="#DBE99E" transform="translate(618,668)"/>
<path d="M0 0 C3.39417765 3.12621626 5.6062718 5.56541027 7 10 C3.64501065 8.61172854 1.84949545 7.14414226 0 4 C0 2.68 0 1.36 0 0 Z " fill="#DAE8A1" transform="translate(611,658)"/>
<path d="M0 0 C0.99 0.33 1.98 0.66 3 1 C-0.465 3.97 -0.465 3.97 -4 7 C-4 4 -4 4 -2 1.8125 C-1.34 1.214375 -0.68 0.61625 0 0 Z " fill="#D8D8D8" transform="translate(883,1180)"/>
<path d="M0 0 C0.99 1.485 0.99 1.485 2 3 C3.98 2.67 5.96 2.34 8 2 C7.01 3.32 6.02 4.64 5 6 C3.68 5.67 2.36 5.34 1 5 C0.67 3.35 0.34 1.7 0 0 Z " fill="#E6EDC9" transform="translate(773,701)"/>
<path d="M0 0 C0 0.99 0 1.98 0 3 C-2.3125 5.25 -2.3125 5.25 -5 7 C-5.99 6.67 -6.98 6.34 -8 6 C-5.36 4.02 -2.72 2.04 0 0 Z " fill="#F0F4DC" transform="translate(505,343)"/>
</svg>
